# desktop capture — 2026-06-29T00:16:40.622Z
platform: linux
input: -f x11grab -i :0 (video_size 2560x1600)
display: :0

## ffmpeg recording stderr
[in#0/x11grab @ 0x614396c6b880] Stream #0: not enough frames to estimate rate; consider increasing probesize
Input #0, x11grab, from ':0':
  Duration: N/A, start: 1782692193.910730, bitrate: 1966080 kb/s
  Stream #0:0: Video: rawvideo (BGR[0] / 0x524742), bgr0, 2560x1600, 1966080 kb/s, 15 fps, 1000k tbr, 1000k tbn, start 1782692193.910730
Stream mapping:
  Stream #0:0 -> #0:0 (rawvideo (native) -> h264 (libx264))
Press [q] to stop, [?] for help
[libx264 @ 0x614396c79400] using cpu capabilities: MMX2 SSE2Fast SSSE3 SSE4.2 AVX FMA3 BMI2 AVX2
[libx264 @ 0x614396c79400] profile High, level 5.0, 4:2:0, 8-bit
[libx264 @ 0x614396c79400] 264 - core 165 - H.264/MPEG-4 AVC codec - Copyleft 2003-2025 - http://www.videolan.org/x264.html - options: cabac=1 ref=3 deblock=1:0:0 analyse=0x3:0x113 me=hex subme=7 psy=1 psy_rd=1.00:0.00 mixed_ref=1 me_range=16 chroma_me=1 trellis=1 8x8dct=1 cqm=0 deadzone=21,11 fast_pskip=1 chroma_qp_offset=-2 threads=36 lookahead_threads=6 sliced_threads=0 nr=0 decimate=1 interlaced=0 bluray_compat=0 constrained_intra=0 bframes=3 b_pyramid=2 b_adapt=1 b_bias=0 direct=1 weightb=1 open_gop=0 weightp=2 keyint=250 keyint_min=15 scenecut=40 intra_refresh=0 rc_lookahead=40 rc=crf mbtree=1 crf=23.0 qcomp=0.60 qpmin=0 qpmax=69 qpstep=4 ip_ratio=1.40 aq=1:1.00
Output #0, mp4, to '/home/shaw/milady/eliza-wt-9944/.github/issue-evidence/9944-evidence-capture/linux/screen.mp4':
  Metadata:
    encoder         : Lavf62.13.100
  Stream #0:0: Video: h264 (avc1 / 0x31637661), yuv420p(tv, progressive), 2560x1600, q=2-31, 15 fps, 15360 tbn
    Metadata:
      encoder         : Lavc62.29.100 libx264
    Side data:
      CPB properties: bitrate max/min/avg: 0/0/0 buffer size: 0 vbv_delay: N/A
frame=    0 fps=0.0 q=0.0 size=       0KiB time=N/A bitrate=N/A speed=N/A elapsed=0:00:00.50    frame=    0 fps=0.0 q=0.0 size=       0KiB time=N/A bitrate=N/A speed=N/A elapsed=0:00:01.00    frame=    0 fps=0.0 q=0.0 size=       0KiB time=N/A bitrate=N/A speed=N/A elapsed=0:00:01.50    frame=    0 fps=0.0 q=0.0 size=       0KiB time=N/A bitrate=N/A speed=N/A elapsed=0:00:02.00    frame=    0 fps=0.0 q=0.0 size=       0KiB time=N/A bitrate=N/A speed=N/A elapsed=0:00:02.50    frame=    0 fps=0.0 q=0.0 size=       0KiB time=N/A bitrate=N/A speed=N/A elapsed=0:00:03.00    frame=    0 fps=0.0 q=0.0 size=       0KiB time=N/A bitrate=N/A speed=N/A elapsed=0:00:03.50    frame=    0 fps=0.0 q=0.0 size=       0KiB time=N/A bitrate=N/A speed=N/A elapsed=0:00:04.00    frame=    0 fps=0.0 q=0.0 size=       0KiB time=N/A bitrate=N/A speed=N/A elapsed=0:00:04.50    frame=    0 fps=0.0 q=0.0 size=       0KiB time=N/A bitrate=N/A speed=N/A elapsed=0:00:05.00    frame=    3 fps=0.5 q=27.0 size=     512KiB time=00:00:00.06 bitrate=62920.0kbits/s speed=0.0121x elapsed=0:00:05.50    frame=   12 fps=2.0 q=27.0 size=     512KiB time=00:00:00.66 bitrate=6292.0kbits/s speed=0.111x elapsed=0:00:06.00    [out#0/mp4 @ 0x614396c788c0] video:830KiB audio:0KiB subtitle:0KiB other streams:0KiB global headers:0KiB muxing overhead: 0.228391%
frame=   90 fps= 14 q=-1.0 Lsize=     831KiB time=00:00:05.86 bitrate=1160.9kbits/s speed=0.906x elapsed=0:00:06.47    
[libx264 @ 0x614396c79400] frame I:1     Avg QP:16.18  size:555415
[libx264 @ 0x614396c79400] frame P:23    Avg QP:18.27  size: 11471
[libx264 @ 0x614396c79400] frame B:66    Avg QP:26.96  size:   447
[libx264 @ 0x614396c79400] consecutive B-frames:  2.2%  0.0%  0.0% 97.8%
[libx264 @ 0x614396c79400] mb I  I16..4: 42.1% 12.4% 45.5%
[libx264 @ 0x614396c79400] mb P  I16..4:  0.6%  0.2%  0.8%  P16..4:  1.1%  0.1%  0.1%  0.0%  0.0%    skip:97.1%
[libx264 @ 0x614396c79400] mb B  I16..4:  0.2%  0.1%  0.0%  B16..8:  1.1%  0.0%  0.0%  direct: 0.0%  skip:98.5%  L0:40.1% L1:59.4% BI: 0.5%
[libx264 @ 0x614396c79400] 8x8 transform intra:16.6% inter:25.2%
[libx264 @ 0x614396c79400] coded y,uvDC,uvAC intra: 26.7% 41.5% 40.3% inter: 0.1% 0.2% 0.1%
[libx264 @ 0x614396c79400] i16 v,h,dc,p: 50% 49%  0%  0%
[libx264 @ 0x614396c79400] i8 v,h,dc,ddl,ddr,vr,hd,vl,hu: 40%  9% 50%  0%  0%  0%  0%  0%  0%
[libx264 @ 0x614396c79400] i4 v,h,dc,ddl,ddr,vr,hd,vl,hu: 43% 24% 13%  2%  4%  4%  4%  3%  3%
[libx264 @ 0x614396c79400] i8c dc,h,v,p: 47% 32% 19%  2%
[libx264 @ 0x614396c79400] Weighted P-Frames: Y:0.0% UV:0.0%
[libx264 @ 0x614396c79400] ref P L0: 70.1%  3.4% 23.3%  3.2%
[libx264 @ 0x614396c79400] ref B L0: 71.2% 24.4%  4.4%
[libx264 @ 0x614396c79400] ref B L1: 95.2%  4.8%
[libx264 @ 0x614396c79400] kb/s:1131.66
